HIERARCHY
ROOT root
{
	OFFSET	0	13.1	24.9
	CHANNELS 6  Xposition Yposition Zposition Xrotation Yrotation Zrotation
	JOINT spine_1
	{
		OFFSET	0	9.99999	0
		CHANNELS 3  Xrotation Yrotation Zrotation
		JOINT spine_2
		{
			OFFSET	0	112	-10
			CHANNELS 3  Xrotation Yrotation Zrotation
			JOINT spine_3
			{
				OFFSET	0	206.5	19.3
				CHANNELS 3  Xrotation Yrotation Zrotation
				JOINT spine_4
				{
					OFFSET	0	110.4	14.6
					CHANNELS 3  Xrotation Yrotation Zrotation
					JOINT neck_1
					{
						OFFSET	0	71.8	-50.3
						CHANNELS 3  Xrotation Yrotation Zrotation
						JOINT neck_2
						{
							OFFSET	0	86.2	-25.8
							CHANNELS 3  Xrotation Yrotation Zrotation
							JOINT head_ee
							{
								OFFSET	0	179.8	-8.7
								CHANNELS 3  Xrotation Yrotation Zrotation
								End Site
								{
									OFFSET	1	0	0
								}
							}
						}
					}
					JOINT left_clavicle
					{
						OFFSET	-43.2	22.4	-70.8
						CHANNELS 3  Xrotation Yrotation Zrotation
						JOINT left_shoulder
						{
							OFFSET	-93.9	-5.79999	48.7
							CHANNELS 3  Xrotation Yrotation Zrotation
							JOINT left_elbow
							{
								OFFSET	-291.4	-30.8	15.2
								CHANNELS 3  Xrotation Yrotation Zrotation
								JOINT left_lowarm_twist
								{
									OFFSET	-110.7	-3.89999	13.6
									CHANNELS 3  Xrotation Yrotation Zrotation
									JOINT left_hand
									{
										OFFSET	-110.7	-3.89999	13.6
										CHANNELS 3  Xrotation Yrotation Zrotation
										JOINT left_ee
										{
											OFFSET	-80.8	-5.10001	12.1
											CHANNELS 3  Xrotation Yrotation Zrotation
											End Site
											{
												OFFSET	1	0	0
											}
										}
									}
								}
							}
						}
					}
					JOINT right_clavicle
					{
						OFFSET	43.2	22.4	-70.8
						CHANNELS 3  Xrotation Yrotation Zrotation
						JOINT right_shoulder
						{
							OFFSET	93.9	-5.79999	48.7
							CHANNELS 3  Xrotation Yrotation Zrotation
							JOINT right_elbow
							{
								OFFSET	291.4	-30.8	15.2
								CHANNELS 3  Xrotation Yrotation Zrotation
								JOINT right_lowarm_twist
								{
									OFFSET	110.7	-3.89999	13.6
									CHANNELS 3  Xrotation Yrotation Zrotation
									JOINT right_hand
									{
										OFFSET	110.7	-3.89999	13.6
										CHANNELS 3  Xrotation Yrotation Zrotation
										JOINT right_ee
										{
											OFFSET	80.8	-5.10001	12.1
											CHANNELS 3  Xrotation Yrotation Zrotation
											End Site
											{
												OFFSET	1	0	0
											}
										}
									}
								}
							}
						}
					}
				}
			}
		}
	}
	JOINT left_hip
	{
		OFFSET	-82.8	-127.5	0.300001
		CHANNELS 3  Xrotation Yrotation Zrotation
		JOINT left_knee
		{
			OFFSET	-28.2	-396.7	2.2
			CHANNELS 3  Xrotation Yrotation Zrotation
			JOINT left_ankle
			{
				OFFSET	-11.7	-411.3	35.4
				CHANNELS 3  Xrotation Yrotation Zrotation
				JOINT left_toes
				{
					OFFSET	0	-60	-88.6
					CHANNELS 3  Xrotation Yrotation Zrotation
					JOINT left_foot_ee
					{
						OFFSET	-22.5	-16.5	-42.2
						CHANNELS 3  Xrotation Yrotation Zrotation
						End Site
						{
							OFFSET	1	0	0
						}
					}
				}
			}
		}
	}
	JOINT right_hip
	{
		OFFSET	82.8	-127.5	0.300001
		CHANNELS 3  Xrotation Yrotation Zrotation
		JOINT right_knee
		{
			OFFSET	28.2	-396.7	2.2
			CHANNELS 3  Xrotation Yrotation Zrotation
			JOINT right_ankle
			{
				OFFSET	11.7	-411.3	35.4
				CHANNELS 3  Xrotation Yrotation Zrotation
				JOINT right_toes
				{
					OFFSET	0	-60	-88.6
					CHANNELS 3  Xrotation Yrotation Zrotation
					JOINT right_foot_ee
					{
						OFFSET	22.5	-16.5	-42.2
						CHANNELS 3  Xrotation Yrotation Zrotation
						End Site
						{
							OFFSET	1	0	0
						}
					}
				}
			}
		}
	}
}
MOTION
Frames: 15
Frame Time: 0.02
487.108445213 713.297 -1204.55125142 168.093245505 -67.6957769011 168.583548787 -2.76068 -0.0232795 0.988319 -2.76014 -0.0861185 0.984835 -2.7611 -0.336389 0.929607 -2.76225 -0.18536 0.971062 -3.13936 5.49581 -3.51076 -3.01727 12.7199 -2.85181 -0.0 0.0 -0.0 5.81218 -24.6361 9.76871 -13.6741 -14.8987 61.1251 1.48125 -36.2678 0.485141 20.6437 0.259698 -2.61003 2.97259 -7.61545 17.0828 -0.0 0.0 -0.0 9.29573 -6.59714 -17.8373 -17.0888 23.9912 -58.4649 0.881298 23.5843 -0.18399 7.7392 -0.207695 0.96603 -1.29813 -2.83136 7.42657 0.0 0.0 0.0 -10.6963 8.58099 4.7825 -10.0148 0.28103 1.50931 24.2733 7.77228 -3.24658 -15.8777 0.0 0.0 -0.0 0.0 -0.0 10.1355 -1.84806 3.01915 -31.9166 0.0341028 -4.83516 -20.2163 -26.387 -3.19022 -40.0522 0.0 0.0 0.0 0.0 0.0 
489.434031905 714.819 -1203.15650187 171.558467996 -65.6244826462 171.879637569 -2.48245 0.143978 1.02111 -2.48187 0.0787136 1.0282 -2.47978 -0.183241 1.0148 -2.48121 -0.0206819 1.031 -3.39173 5.62563 -2.95612 -3.29002 12.5315 -2.22571 -0.0 0.0 -0.0 5.51068 -23.2206 9.24923 -10.5378 -16.1833 61.1333 1.5074 -36.7471 0.500698 21.049 0.255328 -2.6616 2.18407 -8.04406 11.4044 -0.0 0.0 -0.0 9.21989 -5.65313 -17.7585 -17.5895 24.4099 -58.6796 0.821729 22.1491 -0.160841 9.55388 -0.237376 1.19592 -1.2653 -5.41034 6.0429 0.0 0.0 0.0 -12.747 8.68623 5.70335 -2.64551 0.09985 0.393686 24.4269 9.38166 -3.26755 -17.4876 0.0 0.0 -0.0 0.0 -0.0 12.8362 -1.50403 2.33539 -30.1876 -0.0368337 -4.57933 -24.9286 -28.4418 -3.9854 -40.1549 0.0 0.0 0.0 0.0 0.0 
493.389569238 717.972 -1197.31228271 173.355946959 -64.2233585834 174.106223337 -2.41229 0.0759088 0.871494 -2.41187 0.0203017 0.874558 -2.4111 -0.199982 0.85163 -2.41211 -0.0629782 0.872524 -2.82257 5.28467 -2.67765 -2.72697 11.6832 -2.0452 -0.0 0.0 -0.0 4.93898 -20.7429 8.23793 -8.72593 -18.1551 61.1519 1.59422 -38.2964 0.553582 21.0597 0.255208 -2.66296 1.81602 -10.7929 7.68708 -0.0 0.0 -0.0 9.19973 -5.75076 -17.7128 -18.8967 24.0606 -58.3677 0.85809 23.0288 -0.174808 11.4357 -0.260448 1.43518 -1.33988 -5.23867 6.61284 0.0 0.0 0.0 -13.6951 8.89539 5.07139 0.564595 -0.0236604 -0.0834097 21.7623 7.53511 -2.94691 -19.5683 0.0 0.0 -0.0 0.0 -0.0 15.061 2.53406 0.95407 -30.1247 -0.0392712 -4.56997 -25.1556 -28.9084 -4.03364 -40.1383 0.0 0.0 0.0 0.0 0.0 
503.516046181 719.363 -1193.38064129 175.057586117 -60.4560180404 176.310890685 -2.38767 0.217827 0.805972 -2.38733 0.166102 0.818199 -2.38448 -0.0442965 0.833712 -2.38544 0.0879239 0.830245 -2.83688 5.715 -2.50952 -2.73714 12.3336 -1.80746 -0.0 0.0 -0.0 4.73786 -18.7665 7.97812 -6.14564 -18.7037 60.6763 1.75 -40.9183 0.65292 19.6469 0.268895 -2.48304 1.68655 -10.6722 6.85977 -0.0 0.0 -0.0 9.10888 -4.78605 -17.5987 -19.2099 24.0453 -58.5579 0.846091 22.7398 -0.170142 11.7007 -0.263066 1.46893 -1.24329 -6.84652 5.24928 0.0 0.0 0.0 -14.7629 9.59633 5.65833 1.93827 -0.0846565 -0.285363 21.3175 10.8577 -2.89922 -19.6826 0.0 0.0 -0.0 0.0 -0.0 16.7868 -0.201454 3.00603 -29.3058 -0.0700286 -4.44807 -24.4373 -25.2161 -3.83518 -40.1337 0.0 0.0 0.0 0.0 0.0 
508.493332973 716.521 -1189.98031132 175.790277143 -61.635025903 177.509860441 -2.23789 0.166013 0.671402 -2.23765 0.122954 0.680605 -2.23587 -0.0497887 0.689827 -2.23653 0.0597788 0.689033 -2.89583 5.81024 -2.76875 -2.787 12.7101 -2.05894 -0.0 0.0 -0.0 4.66079 -19.6511 7.73453 -3.94402 -19.1698 60.2033 1.87586 -42.8954 0.737 20.1286 0.264727 -2.54442 1.38349 -12.0289 4.21478 -0.0 0.0 -0.0 9.10578 -4.98109 -17.5806 -19.7233 23.722 -58.5122 0.817496 22.046 -0.159249 11.7142 -0.263195 1.47065 -1.15493 -6.60738 4.77905 0.0 0.0 0.0 -15.6467 10.1046 5.31082 5.9233 -0.28883 -0.862404 19.5805 11.5066 -2.68627 -20.4227 0.0 0.0 -0.0 0.0 -0.0 18.8344 0.156193 3.49812 -27.5548 -0.12993 -4.18602 -23.6981 -24.2892 -3.70173 -40.134 0.0 0.0 0.0 0.0 0.0 
521.700860832 711.448 -1187.54489059 175.577852166 -61.0130633699 177.274572469 -2.24666 0.193266 0.608501 -2.24646 0.154155 0.619565 -2.24452 -0.0045109 0.638438 -2.24508 0.0963731 0.631139 -3.19414 5.3839 -3.05352 -3.09086 12.163 -2.38441 -0.0 0.0 -0.0 4.72971 -20.0327 7.84929 -2.25922 -19.5313 59.4793 1.87955 -42.9515 0.739513 21.4484 0.250663 -2.71242 1.08715 -12.4284 2.04152 -0.0 0.0 -0.0 9.00013 -4.7287 -17.39 -20.4909 23.8144 -58.5208 0.818584 22.0725 -0.159657 12.7 -0.271531 1.59629 -1.111 -7.13446 4.25609 0.0 0.0 0.0 -17.0048 10.7739 5.60394 5.10241 -0.243488 -0.744697 21.0233 12.3166 -2.86891 -20.8395 0.0 0.0 -0.0 0.0 -0.0 22.2265 0.221395 2.86563 -24.7868 -0.208194 -3.76848 -23.8733 -23.7708 -3.71985 -40.1485 0.0 0.0 0.0 0.0 0.0 
533.123129867 712.662 -1185.49072483 174.081908838 -61.6758300186 175.85534635 -2.52577 0.330814 0.709439 -2.52553 0.285002 0.729051 -2.52147 0.0913074 0.777432 -2.52225 0.212939 0.753257 -4.80343 6.16839 -2.0961 -4.74132 12.9068 -1.09414 -0.0 0.0 -0.0 4.51825 -19.2455 7.46314 -1.79045 -19.9035 58.6799 2.22057 -47.7201 0.982271 21.6973 0.247578 -2.74405 0.910745 -12.7608 0.709171 -0.0 0.0 -0.0 9.38232 -1.86924 -18.3029 -21.9449 23.9365 -58.3666 0.732833 19.9521 -0.128904 14.6939 -0.281778 1.85073 -1.01256 -7.59792 3.40896 0.0 0.0 0.0 -17.4887 9.69867 5.50102 2.6449 -0.117918 -0.388678 21.7315 13.4247 -2.96175 -21.1376 0.0 0.0 -0.0 0.0 -0.0 25.3337 -0.0508721 1.11111 -21.9693 -0.267044 -3.34017 -19.8753 -23.5175 -3.09054 -39.0372 0.0 0.0 0.0 0.0 0.0 
540.450830668 714.397 -1191.17718799 174.538647689 -62.5935321468 176.386748831 -2.40924 0.380524 0.720704 -2.40901 0.333894 0.743456 -2.40422 0.136615 0.803457 -2.40503 0.261787 0.771801 -3.56164 6.00426 -1.81395 -3.48669 12.3466 -0.963907 -0.0 0.0 -0.0 5.01172 -17.8266 8.6469 -0.5496 -19.1905 57.8988 2.28078 -48.4816 1.02709 21.7963 0.246312 -2.75664 0.683675 -13.4668 -1.12423 -0.0 0.0 -0.0 9.14522 -2.31619 -17.8055 -21.3522 23.2153 -58.4818 0.765296 20.7619 -0.140197 15.0532 -0.282683 1.89662 -1.05732 -7.87126 3.5783 0.0 0.0 0.0 -18.0833 11.0933 5.96476 3.62771 -0.166299 -0.531687 22.1339 12.6883 -3.00681 -21.3815 0.0 0.0 -0.0 0.0 -0.0 26.1978 0.243158 1.5539 -20.1891 -0.293343 -3.06828 -21.1272 -21.3388 -3.25617 -39.669 0.0 0.0 0.0 0.0 0.0 
549.581333804 711.919 -1194.73337891 175.763321619 -63.4758284804 177.579505913 -2.3386 0.404129 0.647081 -2.33844 0.362136 0.671484 -2.33381 0.182929 0.740653 -2.33446 0.297602 0.70247 -3.67911 6.2851 -1.27541 -3.61277 12.4504 -0.350987 -0.0 0.0 -0.0 5.12829 -17.0768 8.9583 0.699754 -18.8303 56.9236 2.46299 -50.6537 1.1658 21.8698 0.245359 -2.76597 0.52551 -13.8767 -2.365 -0.0 0.0 -0.0 9.19946 -1.12743 -17.9682 -21.9975 22.7153 -58.0437 0.730468 19.8928 -0.128098 15.728 -0.283604 1.9828 -1.04492 -8.1731 3.36364 0.0 0.0 0.0 -17.8521 11.1981 5.85478 2.83808 -0.127233 -0.41685 22.5588 12.8245 -3.05914 -21.537 0.0 0.0 -0.0 0.0 -0.0 26.8253 0.469256 1.29267 -18.1313 -0.313199 -2.75319 -19.5964 -19.9609 -3.00333 -39.4663 0.0 0.0 0.0 0.0 0.0 
564.088066013 709.117 -1200.38220047 175.53192064 -65.098785752 177.660636951 -2.6113 0.347168 0.299296 -2.61131 0.32742 0.32078 -2.60939 0.235019 0.393535 -2.60948 0.294221 0.351479 -3.65666 6.56603 -0.990595 -3.59052 12.7433 -0.0155514 -0.0 0.0 -0.0 5.33272 -16.6857 9.42804 2.40049 -18.8794 56.9261 2.71503 -53.3588 1.36449 21.9337 0.244519 -2.7741 0.417638 -14.1381 -3.20323 -0.0 0.0 -0.0 9.24146 0.241665 -18.1068 -22.518 22.3235 -57.262 0.678848 18.5869 -0.111087 16.2649 -0.283612 2.05137 -1.0946 -8.87744 3.37135 0.0 0.0 0.0 -17.8251 11.1633 5.61748 0.181125 -0.00750075 -0.0267831 23.0931 12.9176 -3.12415 -21.5177 0.0 0.0 -0.0 0.0 -0.0 29.5766 0.233446 0.631035 -14.7214 -0.321159 -2.23015 -18.3825 -18.9208 -2.80605 -39.3138 0.0 0.0 0.0 0.0 0.0 
577.061615206 704.693 -1208.02294499 175.223592084 -67.6778909319 176.55195117 -2.64344 0.220866 0.374336 -2.64339 0.196598 0.387631 -2.64193 0.091249 0.42495 -2.64214 0.157216 0.405206 -3.33565 6.66316 -0.75155 -3.26675 12.7172 0.213911 -0.0 0.0 -0.0 5.46668 -16.6434 9.71899 3.09307 -18.9347 56.7966 2.9333 -55.4533 1.542 21.8559 0.245539 -2.76422 0.338109 -14.1105 -3.72674 -0.0 0.0 -0.0 9.1456 0.739768 -17.9271 -23.008 21.8926 -56.8405 0.674014 18.4636 -0.109551 16.7366 -0.283089 2.11162 -1.10493 -9.1332 3.32382 0.0 0.0 0.0 -17.534 11.1372 6.64298 -3.09816 0.115106 0.461478 23.3573 13.2439 -3.15785 -21.3946 0.0 0.0 -0.0 0.0 -0.0 31.9185 0.035126 -1.17891 -12.3411 -0.308267 -1.86519 -17.5193 -18.2304 -2.66741 -39.1679 0.0 0.0 0.0 0.0 0.0 
586.560858556 697.624 -1213.47150863 175.282686297 -70.5753858849 175.85440464 -2.70162 0.0752672 0.272239 -2.70158 0.0577915 0.276476 -2.70125 -0.0149175 0.282057 -2.70136 0.0298153 0.280874 -2.62786 6.75037 -0.626198 -2.54799 12.7326 0.285669 -0.0 0.0 -0.0 5.6003 -17.5207 9.93851 4.83761 -18.9894 56.9102 3.11701 -57.0592 1.69478 21.8954 0.245023 -2.76923 0.40524 -13.9323 -3.19831 -0.0 0.0 -0.0 9.08323 1.61042 -17.8234 -23.3277 21.595 -56.0837 0.648276 17.8038 -0.101541 17.7515 -0.280282 2.24122 -1.09977 -10.1043 2.85747 0.0 0.0 0.0 -17.2237 10.7416 6.98863 -4.861 0.169399 0.726564 25.0585 12.925 -3.35751 -21.282 0.0 0.0 -0.0 0.0 -0.0 33.4799 0.0681235 -2.83525 -10.025 -0.281182 -1.51086 -13.7856 -15.0356 -2.07676 -38.0034 0.0 0.0 0.0 0.0 0.0 
603.359746353 692.635 -1209.7418566 178.643280543 -74.1579959015 179.188269959 -2.74992 -0.0593341 0.036534 -2.74992 -0.0615386 0.0326844 -2.74996 -0.0678689 0.0157824 -2.74995 -0.0645246 0.0263029 -2.47094 7.32522 0.0786865 -2.38804 13.2116 1.08653 -0.0 0.0 -0.0 5.68962 -18.0402 10.0901 6.20823 -18.5791 56.3433 3.29098 -58.4617 1.84194 21.894 0.245041 -2.76906 0.417832 -13.3087 -2.84573 -0.0 0.0 -0.0 9.27132 2.44114 -18.2328 -24.178 21.0162 -56.7687 0.568251 15.7218 -0.0784569 18.7737 -0.275134 2.37168 -1.17668 -11.1338 2.88824 0.0 0.0 0.0 -17.3831 10.7432 6.01682 -4.92412 0.171191 0.736083 28.806 12.8134 -3.78363 -20.7745 0.0 0.0 -0.0 0.0 -0.0 34.7648 0.276619 -3.17172 -9.15098 -0.267241 -1.37748 -11.6195 -11.6699 -1.73813 -36.8377 0.0 0.0 0.0 0.0 0.0 
618.658147704 691.167 -1200.80351035 179.797234675 -75.1499315646 -179.458460585 -2.78148 -0.109395 -0.182217 -2.78147 -0.0975786 -0.188809 -2.78112 -0.045699 -0.207562 -2.78117 -0.077906 -0.19774 -2.16379 7.43231 0.487064 -2.07976 13.0575 1.49935 -0.0 0.0 -0.0 5.83604 -18.6649 10.3565 5.97904 -18.2986 56.0874 3.287 -58.4308 1.83855 21.7056 0.247472 -2.74511 0.45488 -12.3302 -2.17606 -0.0 0.0 -0.0 9.34904 2.61207 -18.3985 -24.5289 20.7467 -57.3558 0.531238 14.7438 -0.0687316 19.4244 -0.270645 2.45468 -1.11718 -11.3389 2.41801 0.0 0.0 0.0 -17.4992 10.844 4.99351 -5.52479 0.187723 0.826784 29.0783 13.8558 -3.82229 -21.1063 0.0 0.0 -0.0 0.0 -0.0 35.9743 0.69678 -2.81965 -8.49983 -0.255533 -1.27824 -11.3775 -9.70018 -1.69943 -36.1841 0.0 0.0 0.0 0.0 0.0 
692.193087023 672.41 -1172.12074792 -172.872775975 -72.8621686939 -172.139175723 -2.40599 -0.0693897 -0.408287 -2.4059 -0.0432689 -0.411875 -2.40548 0.061508 -0.409549 -2.40571 -0.00394391 -0.414123 1.12916 8.08605 0.770379 1.27837 13.6624 1.57086 -0.0 0.0 -0.0 6.82343 -20.9999 12.3101 4.58941 -17.7482 54.4034 3.23476 -58.0203 1.79414 18.9529 0.273992 -2.39454 0.539987 -7.81095 0.330329 -0.0 0.0 -0.0 10.9183 1.99001 -21.6784 -27.0369 19.5245 -53.9341 0.372878 10.4655 -0.0341495 21.6906 -0.247662 2.74321 -1.09958 -16.8323 -0.128447 0.0 0.0 0.0 -19.4187 10.2886 4.61615 -5.28415 0.181214 0.790427 34.9924 11.216 -4.41895 -25.983 0.0 0.0 -0.0 0.0 -0.0 36.1741 1.44549 -1.83932 -6.61518 -0.215298 -0.991844 -8.07616 0.640948 -1.21669 -34.902 0.0 0.0 0.0 0.0 0.0 
